<svg height="480pt" viewBox="0 0 480.04766 480" width="480pt" xmlns="http://www.w3.org/2000/svg" xmlns:xlink="http://www.w3.org/1999/xlink"><linearGradient id="a" gradientUnits="userSpaceOnUse" x1="0" x2="486.88" y1="239.684909" y2="239.684909"><stop offset="0" stop-color="#006df0"/><stop offset="1" stop-color="#00e7f0"/></linearGradient><path d="m472 439.683594h-160v-16c0-4.417969-3.582031-8-8-8h-32v-24c0-4.417969-3.582031-8-8-8h-16v-16h120c60.511719.027344 110.101562-48.015625 111.992188-108.496094 1.894531-60.480469-44.597657-111.53125-104.992188-115.285156.667969-5.378906 1.003906-10.796875 1-16.21875-.179688-67.484375-52.71875-123.234375-120.074219-127.414063-67.355469-4.179687-126.382812 44.65625-134.902343 111.597657-67.382813 3.878906-120.175782 59.417968-120.640626 126.914062-.460937 67.492188 51.5625 123.75 118.890626 128.550781 2.878906.265625 112.726562.351563 112.726562.351563v16h-16c-4.417969 0-8 3.582031-8 8v24h-32c-4.417969 0-8 3.582031-8 8v16h-160c-4.417969 0-8 3.582031-8 8 0 4.417968 3.582031 8 8 8h160v16c0 4.417968 3.582031 8 8 8h128c4.417969 0 8-3.582032 8-8v-16h160c4.417969 0 8-3.582032 8-8 0-4.417969-3.582031-8-8-8zm-351.480469-88.300782c-60.003906-4.425781-105.792969-55.46875-103.695312-115.601562 2.09375-60.132812 51.328125-107.863281 111.496093-108.097656 4.222657.011718 7.726563-3.265625 8-7.480469 2.765626-41.746094 28.570313-78.46875 66.910157-95.222656 38.339843-16.75 82.820312-10.734375 115.332031 15.59375 32.515625 26.332031 47.640625 68.589843 39.222656 109.574219-.523437 2.492187.175782 5.085937 1.875 6.984374 1.703125 1.894532 4.203125 2.867188 6.738282 2.617188.539062-.050781 1.074218 0 1.601562 0 53.019531 0 96 42.980469 96 96s-42.980469 96-96 96c0 0-244.871094-.136719-247.480469-.367188zm175.480469 112.300782h-112v-32h32c4.417969 0 8-3.582032 8-8v-24h32v24c0 4.417968 3.582031 8 8 8h32zm0 0" fill="url(#a)"/></svg>