<svg height="480pt" viewBox="0 0 480.48895 480" width="480pt" xmlns="http://www.w3.org/2000/svg" xmlns:xlink="http://www.w3.org/1999/xlink"><linearGradient id="a"><stop offset="0" stop-color="#006df0"/><stop offset="1" stop-color="#00e7f0"/></linearGradient><linearGradient id="b" gradientUnits="userSpaceOnUse" x1="5.184" x2="485.76" xlink:href="#a" y1="240.258599" y2="240.258599"/><linearGradient id="c" gradientUnits="userSpaceOnUse" x1="5.184" x2="485.76" xlink:href="#a" y1="312.258599" y2="312.258599"/><linearGradient id="d" gradientUnits="userSpaceOnUse" x1="5.184" x2="485.76" xlink:href="#a" y1="248.258599" y2="248.258599"/><linearGradient id="e" gradientUnits="userSpaceOnUse" x1="5.184" x2="485.76" xlink:href="#a" y1="184.258599" y2="184.258599"/><path d="m472 440.257812h-160v-16c0-4.417968-3.582031-8-8-8h-32v-24c0-4.417968-3.582031-8-8-8h-16v-32h128c4.417969 0 8-3.582031 8-8v-56c2.96875 0 5.847656-.167968 8.710938-.429687 35.1875-3.027344 65.875-25.128906 79.890624-57.546875 14.019532-32.414062 9.105469-69.910156-12.789062-97.621094-21.898438-27.710937-57.242188-41.160156-92.019531-35.015625-2.832031-44.5-33.710938-82.238281-76.765625-93.828125-43.054688-11.585937-88.703125 5.5625-113.484375 42.625-7.894531-4.082031-16.65625-6.203125-25.542969-6.183594-30.914062.035157-55.964844 25.085938-56 56-53.019531 0-96 42.980469-96 96 0 53.019532 42.980469 96 96 96v56c0 4.417969 3.582031 8 8 8h128v32h-16c-4.417969 0-8 3.582032-8 8v24h-32c-4.417969 0-8 3.582032-8 8v16h-160c-4.417969 0-8 3.582032-8 8 0 4.417969 3.582031 8 8 8h160v16c0 4.417969 3.582031 8 8 8h128c4.417969 0 8-3.582031 8-8v-16h160c4.417969 0 8-3.582031 8-8 0-4.417968-3.582031-8-8-8zm-104-232h-256v-48h256zm-256 16h256v48h-256zm-96-32c.046875-44.160156 35.835938-79.949218 80-80 2.644531 0 5.289062.144532 7.921875.433594 2.550781.285156 5.085937-.671875 6.8125-2.570312 1.726563-1.902344 2.433594-4.515625 1.90625-7.03125-.441406-2.25-.65625-4.539063-.640625-6.832032.027344-22.078124 17.917969-39.972656 40-40 8.421875-.039062 16.632812 2.640626 23.40625 7.640626 1.851562 1.363281 4.195312 1.867187 6.441406 1.382812s4.175782-1.914062 5.296875-3.917969c19.519531-35.003906 60.226563-52.394531 99.015625-42.304687 38.789063 10.09375 65.855469 45.121094 65.839844 85.199218 0 .929688 0 1.863282-.054688 2.808594-.179687 2.597656.914063 5.121094 2.9375 6.761719 2.023438 1.640625 4.714844 2.195313 7.222657 1.488281 24.128906-6.867187 50.082031-2.019531 70.105469 13.101563 20.019531 15.117187 31.789062 38.753906 31.789062 63.839843.238281 41.449219-31.425781 76.121094-72.726562 79.632813-2.402344.214844-4.800782.367187-7.273438.367187v-120c0-4.417968-3.582031-8-8-8h-272c-4.417969 0-8 3.582032-8 8v120c-44.164062-.046874-79.953125-35.835937-80-80zm96 96h256v48h-256zm184 176h-112v-32h32c4.417969 0 8-3.582031 8-8v-24h32v24c0 4.417969 3.582031 8 8 8h32zm0 0" fill="url(#b)"/><path d="m160 312.257812c0 8.835938-7.164062 16-16 16s-16-7.164062-16-16c0-8.835937 7.164062-16 16-16s16 7.164063 16 16zm0 0" fill="url(#c)"/><path d="m352 312.257812c0-4.417968-3.582031-8-8-8h-160c-4.417969 0-8 3.582032-8 8 0 4.417969 3.582031 8 8 8h160c4.417969 0 8-3.582031 8-8zm0 0" fill="url(#c)"/><path d="m160 248.257812c0 8.835938-7.164062 16-16 16s-16-7.164062-16-16c0-8.835937 7.164062-16 16-16s16 7.164063 16 16zm0 0" fill="url(#d)"/><path d="m344 240.257812h-160c-4.417969 0-8 3.582032-8 8 0 4.417969 3.582031 8 8 8h160c4.417969 0 8-3.582031 8-8 0-4.417968-3.582031-8-8-8zm0 0" fill="url(#d)"/><g fill="url(#e)"><path d="m160 184.257812c0 8.835938-7.164062 16-16 16s-16-7.164062-16-16c0-8.835937 7.164062-16 16-16s16 7.164063 16 16zm0 0"/><path d="m184 192.257812h160c4.417969 0 8-3.582031 8-8 0-4.417968-3.582031-8-8-8h-160c-4.417969 0-8 3.582032-8 8 0 4.417969 3.582031 8 8 8zm0 0"/></g></svg>