<svg height="480pt" viewBox="0 0 480 480.02905" width="480pt" xmlns="http://www.w3.org/2000/svg" xmlns:xlink="http://www.w3.org/1999/xlink"><linearGradient id="a"><stop offset="0" stop-color="#006df0"/><stop offset="1" stop-color="#00e7f0"/></linearGradient><linearGradient id="b" gradientUnits="userSpaceOnUse" x1=".294525" x2="502.358525" xlink:href="#a" y1="304.025053" y2="304.025053"/><linearGradient id="c" gradientUnits="userSpaceOnUse" x1=".294525" x2="502.358525" xlink:href="#a" y1="336.025053" y2="336.025053"/><linearGradient id="d" gradientUnits="userSpaceOnUse" x1=".014525" x2="502.078525" xlink:href="#a" y1="240.025053" y2="240.025053"/><path d="m304.015625 272.023438h-8v-8c0-30.925782-25.074219-56-56-56-30.929687 0-56 25.074218-56 56v8h-8c-4.417969 0-8 3.582031-8 8v112c0 4.417968 3.582031 8 8 8h128c4.417969 0 8-3.582032 8-8v-112c0-4.417969-3.582031-8-8-8zm-104-8c0-22.089844 17.90625-40 40-40 22.089844 0 40 17.910156 40 40v8h-80zm96 120h-112v-96h112zm0 0" fill="url(#b)"/><path d="m240.015625 296.023438c-11.675781-.019532-21.664063 8.382812-23.644531 19.886718-1.976563 11.507813 4.632812 22.765625 15.644531 26.644532v25.46875c0 4.417968 3.582031 8 8 8s8-3.582032 8-8v-25.46875c11.011719-3.878907 17.621094-15.136719 15.640625-26.644532-1.976562-11.503906-11.964844-19.90625-23.640625-19.886718zm0 32c-4.417969 0-8-3.582032-8-8 0-4.417969 3.582031-8 8-8s8 3.582031 8 8c0 4.417968-3.582031 8-8 8zm0 0" fill="url(#c)"/><path d="m384.015625 96.023438c-5.433594.003906-10.855469.464843-16.210937 1.386718-2.824219-44.503906-33.703126-82.25-76.761719-93.835937-43.058594-11.589844-88.714844 5.5625-113.492188 42.636719-7.890625-4.085938-16.652343-6.207032-25.535156-6.1875-30.914063.042968-55.960937 25.089843-56 56-53.019531 0-96 42.980468-96 96 0 53.019531 42.980469 96 96 96h.199219c.933594 25.761718 6.628906 51.128906 16.800781 74.816406 23.316406 54.570312 68.402344 96.898437 124.335937 116.730468 1.722657.613282 3.605469.613282 5.328126 0 55.816406-19.753906 100.84375-61.933593 124.191406-116.34375 10.304687-23.785156 16.050781-49.296874 16.945312-75.203124h.199219c2.96875 0 5.847656-.167969 8.710937-.429688 50.949219-4.847656 89.136719-48.804688 86.8125-99.929688-2.324218-51.125-44.347656-91.4375-95.523437-91.640624zm-31.832031 260.859374c-21.203125 49.410157-61.75 87.960938-112.167969 106.636719-50.53125-18.738281-91.144531-57.410156-112.328125-106.964843-10.382812-24.175782-15.714844-50.21875-15.671875-76.53125v-85.167969c43.710937 11.503906 90.285156.628906 124.382813-29.046875l3.617187-3.160156 3.605469 3.152343c34.082031 29.71875 80.675781 40.601563 124.394531 29.054688v85.167969c.070313 26.4375-5.320313 52.601562-15.832031 76.859374zm39.09375-85.226562c-2.398438.21875-4.796875.367188-7.261719.367188v-88c0-2.570313-1.238281-4.984376-3.320313-6.488282-.625-.4375-1.308593-.78125-2.03125-1.023437-.203124-.070313-.394531-.109375-.59375-.167969-.550781-.140625-1.113281-.230469-1.679687-.261719-.128906 0-.25-.058593-.375-.058593-.128906 0-.160156 0-.242187 0-.773438.011718-1.539063.136718-2.277344.371093l-2.402344.796875c-40.378906 13.425782-84.84375 4.5-116.910156-23.46875l-8.890625-7.761718c-3.011719-2.632813-7.511719-2.632813-10.527344 0l-8.886719 7.761718c-32.078125 27.96875-76.550781 36.90625-116.945312 23.503906l-2.398438-.800781c-2.441406-.8125-5.121094-.398437-7.207031 1.105469-2.082031 1.507812-3.316406 3.921875-3.3125 6.492188v88c-44.183594 0-80-35.816407-80-80 0-44.179688 35.816406-80 80-80 2.640625 0 5.285156.144531 7.910156.433593 2.542969.28125 5.070313-.667969 6.792969-2.558593 1.726562-1.890626 2.441406-4.496094 1.929688-7-.441407-2.265626-.65625-4.566407-.632813-6.875.023437-22.078126 17.917969-39.972657 40-40 8.421875-.039063 16.628906 2.640624 23.40625 7.640624 1.847656 1.367188 4.195313 1.871094 6.441406 1.386719 2.242188-.484375 4.171875-1.910156 5.296875-3.914062 19.519532-35 60.222656-52.394531 99.011719-42.304688 38.785156 10.09375 65.855469 45.117188 65.84375 85.191407 0 .929687 0 1.867187-.066406 2.808593-.179688 2.601563.917969 5.125 2.941406 6.765625 2.023437 1.644532 4.722656 2.195313 7.226563 1.484375 24.132812-6.867187 50.085937-2.015625 70.105468 13.101563 20.023438 15.117187 31.792969 38.753906 31.792969 63.839844.234375 41.453124-31.433594 76.125-72.738281 79.632812zm0 0" fill="url(#d)"/></svg>