<?xml version="1.0" standalone="no"?>
<!DOCTYPE svg PUBLIC "-//W3C//DTD SVG 20010904//EN"
 "http://www.w3.org/TR/2001/REC-SVG-20010904/DTD/svg10.dtd">
<svg version="1.0" xmlns="http://www.w3.org/2000/svg"
 width="512.000000pt" height="512.000000pt" viewBox="0 0 512.000000 512.000000"
 preserveAspectRatio="xMidYMid meet">

<g transform="translate(0.000000,512.000000) scale(0.100000,-0.100000)"
fill="#000000" stroke="none">
<path d="M2380 5114 c-19 -2 -78 -9 -130 -14 -330 -36 -695 -160 -990 -336
-375 -224 -680 -529 -904 -904 -175 -292 -291 -632 -338 -990 -16 -123 -16
-497 0 -620 82 -623 356 -1150 820 -1581 256 -239 575 -425 922 -539 274 -91
491 -124 800 -124 228 0 329 9 530 50 689 141 1304 583 1674 1204 175 292 291
632 338 990 16 123 16 497 0 620 -47 358 -163 698 -338 990 -224 375 -529 680
-904 904 -289 173 -634 291 -980 336 -88 12 -438 21 -500 14z m535 -174 c518
-80 978 -312 1345 -680 369 -368 597 -820 681 -1351 31 -191 31 -507 0 -698
-84 -531 -312 -983 -681 -1351 -368 -369 -822 -598 -1351 -681 -163 -26 -490
-31 -639 -10 -460 64 -866 236 -1221 517 -95 74 -289 268 -363 363 -282 355
-455 764 -517 1221 -17 122 -17 458 0 580 62 457 235 866 517 1221 74 95 268
289 363 363 356 282 793 466 1221 515 52 6 111 13 130 15 80 9 392 -5 515 -24z"/>
<path d="M2390 4814 c-185 -18 -374 -54 -515 -100 -267 -87 -549 -241 -745
-406 -88 -74 -100 -109 -56 -153 43 -43 70 -35 181 55 230 186 531 331 829
400 312 72 677 70 977 -5 209 -53 439 -148 536 -222 376 -285 663 -747 783
-1258 82 -349 82 -781 0 -1130 -120 -511 -407 -973 -783 -1258 -137 -105 -466
-221 -742 -262 -148 -22 -442 -22 -590 0 -459 68 -863 272 -1190 600 -279 278
-464 604 -560 984 -75 300 -77 665 -5 977 69 298 214 599 400 829 90 111 98
138 55 181 -44 44 -79 32 -153 -56 -125 -149 -253 -361 -335 -556 -112 -270
-162 -498 -173 -799 -21 -535 148 -1053 483 -1479 72 -91 278 -297 369 -369
406 -320 892 -487 1415 -487 960 0 1827 627 2133 1541 210 629 133 1330 -208
1889 -128 209 -323 433 -510 585 -340 275 -753 447 -1188 494 -89 10 -323 12
-408 5z"/>
<path d="M1962 3973 c-60 -21 -136 -99 -156 -160 -15 -44 -16 -170 -14 -1268
3 -1190 3 -1221 23 -1260 25 -50 80 -105 130 -130 30 -15 61 -20 120 -20 92 0
138 18 195 75 78 78 75 52 78 642 l3 527 44 -33 c56 -43 105 -60 175 -60 70 0
119 17 175 60 l44 33 3 -527 c3 -501 4 -529 23 -567 25 -50 80 -105 130 -130
56 -28 184 -28 240 0 50 25 105 80 130 130 20 39 20 70 23 1260 3 1381 8 1278
-78 1364 -109 109 -283 109 -390 2 -40 -41 -59 -80 -170 -338 -68 -161 -127
-293 -130 -293 -3 0 -62 132 -130 293 -111 258 -130 297 -170 338 -74 74 -193
99 -298 62z m165 -153 c40 -24 40 -24 217 -440 147 -344 172 -390 216 -390 44
0 69 46 216 390 80 190 155 362 166 383 36 71 112 96 176 57 65 -40 62 29 62
-1265 0 -1298 4 -1214 -63 -1255 -41 -25 -83 -25 -124 0 -66 40 -63 7 -63 772
-1 555 -3 696 -14 710 -19 26 -57 37 -88 26 -29 -10 -33 -18 -108 -194 -62
-146 -88 -174 -160 -174 -74 0 -98 27 -168 193 -33 77 -67 147 -75 158 -23 27
-80 25 -107 -3 -20 -21 -20 -31 -20 -715 0 -766 3 -733 -63 -773 -41 -25 -83
-25 -124 0 -67 41 -63 -43 -63 1255 0 1294 -3 1225 62 1265 42 25 84 25 125 0z"/>
</g>
</svg>
